<svg xmlns="http://www.w3.org/2000/svg" viewBox="0 0 128 128"><defs><linearGradient id="b" x2="1" y2="1"><stop stop-color="#228cfa"/><stop offset="1" stop-color="#074b9c"/></linearGradient><linearGradient id="f" x2="0" y2="1"><stop stop-color="#b5f6ff"/><stop offset="1" stop-color="#50d7ee"/></linearGradient></defs><rect width="128" height="128" rx="32" fill="url(#b)"/><path d="M64 19C65 39 41 44 41 65c0 16 11 27 26 27 18 0 29-12 29-29 0-11-6-22-15-29 2 13-5 17-10 20 3-14-2-26-7-35Z" fill="url(#f)"/><path d="M64 57c1 10-8 13-8 22 0 8 5 13 12 13s13-5 13-13c0-6-4-12-9-16 1 7-2 10-5 11 1-6 0-12-3-17Z" fill="#fff"/><circle cx="91" cy="94" r="23" fill="#0b3265" stroke="#6de5f7" stroke-width="3"/><path d="m81 94 7 7 14-15" fill="none" stroke="#fff" stroke-width="5" stroke-linecap="round" stroke-linejoin="round"/></svg>
